<svg width="24" height="25" viewBox="0 0 24 25" fill="none" xmlns="http://www.w3.org/2000/svg">
<path d="M21.75 7.25V17.75C21.75 18.3467 21.5129 18.919 21.091 19.341C20.669 19.7629 20.0967 20 19.5 20H4.5C3.90326 20 3.33097 19.7629 2.90901 19.341C2.48705 18.919 2.25 18.3467 2.25 17.75V7.25M21.75 7.25C21.75 6.65326 21.5129 6.08097 21.091 5.65901C20.669 5.23705 20.0967 5 19.5 5H4.5C3.90326 5 3.33097 5.23705 2.90901 5.65901C2.48705 6.08097 2.25 6.65326 2.25 7.25M21.75 7.25V7.493C21.75 7.87715 21.6517 8.25491 21.4644 8.5903C21.2771 8.92569 21.0071 9.20754 20.68 9.409L13.18 14.024C12.8252 14.2425 12.4167 14.3582 12 14.3582C11.5833 14.3582 11.1748 14.2425 10.82 14.024L3.32 9.41C2.99292 9.20854 2.72287 8.92669 2.53557 8.5913C2.34827 8.25591 2.24996 7.87815 2.25 7.494V7.25" stroke="#667185" stroke-width="1.5" stroke-linecap="round" stroke-linejoin="round"/>
</svg>
