<svg width="24" height="25" viewBox="0 0 24 25" fill="none" xmlns="http://www.w3.org/2000/svg">
<path d="M3.98008 8.723C3.04454 9.82718 2.3479 11.1132 1.93408 12.5C3.22608 16.838 7.24408 20 12.0001 20C12.9931 20 13.9531 19.862 14.8631 19.605M6.22808 6.728C7.94073 5.59786 9.94817 4.99688 12.0001 5C16.7561 5 20.7731 8.162 22.0651 12.498C21.357 14.8673 19.8371 16.9116 17.7721 18.272M6.22808 6.728L3.00008 3.5M6.22808 6.728L9.87808 10.378M17.7721 18.272L21.0001 21.5M17.7721 18.272L14.1221 14.622C14.4007 14.3434 14.6217 14.0127 14.7725 13.6486C14.9232 13.2846 15.0008 12.8945 15.0008 12.5005C15.0008 12.1065 14.9232 11.7164 14.7725 11.3524C14.6217 10.9883 14.4007 10.6576 14.1221 10.379C13.8435 10.1004 13.5127 9.8794 13.1487 9.72863C12.7847 9.57785 12.3946 9.50025 12.0006 9.50025C11.6066 9.50025 11.2164 9.57785 10.8524 9.72863C10.4884 9.8794 10.1577 10.1004 9.87908 10.379M14.1211 14.621L9.88008 10.38" stroke="#667185" stroke-width="1.5" stroke-linecap="round" stroke-linejoin="round"/>
</svg>
