<svg width="24" height="24" viewBox="0 0 24 24" fill="none" xmlns="http://www.w3.org/2000/svg">
<path d="M0 12C0 18.6274 5.37258 24 12 24C18.6274 24 24 18.6274 24 12C24 5.37258 18.6274 0 12 0C5.37258 0 0 5.37258 0 12Z" fill="#F56630"/>
<path d="M12 6.90002C13.65 6.90002 13.875 6.90002 14.55 6.90002C15.15 6.90002 15.45 7.05002 15.675 7.12502C15.975 7.27502 16.2 7.35002 16.425 7.57502C16.65 7.80002 16.8 8.02502 16.875 8.32502C16.95 8.55002 17.025 8.85002 17.1 9.45002C17.1 10.125 17.1 10.275 17.1 12C17.1 13.725 17.1 13.875 17.1 14.55C17.1 15.15 16.95 15.45 16.875 15.675C16.725 15.975 16.65 16.2 16.425 16.425C16.2 16.65 15.975 16.8 15.675 16.875C15.45 16.95 15.15 17.025 14.55 17.1C13.875 17.1 13.725 17.1 12 17.1C10.275 17.1 10.125 17.1 9.45002 17.1C8.85002 17.1 8.55002 16.95 8.32502 16.875C8.02502 16.725 7.80002 16.65 7.57502 16.425C7.35002 16.2 7.20002 15.975 7.12502 15.675C7.05002 15.45 6.97502 15.15 6.90002 14.55C6.90002 13.875 6.90002 13.725 6.90002 12C6.90002 10.275 6.90002 10.125 6.90002 9.45002C6.90002 8.85002 7.05002 8.55002 7.12502 8.32502C7.27502 8.02502 7.35002 7.80002 7.57502 7.57502C7.80002 7.35002 8.02502 7.20002 8.32502 7.12502C8.55002 7.05002 8.85002 6.97502 9.45002 6.90002C10.125 6.90002 10.35 6.90002 12 6.90002ZM12 5.77502C10.275 5.77502 10.125 5.77502 9.45002 5.77502C8.77502 5.77502 8.32502 5.92502 7.95002 6.07502C7.57502 6.22502 7.20002 6.45002 6.82502 6.82502C6.45002 7.20002 6.30002 7.50002 6.07502 7.95002C5.92502 8.32502 5.85002 8.77502 5.77502 9.45002C5.77502 10.125 5.77502 10.35 5.77502 12C5.77502 13.725 5.77502 13.875 5.77502 14.55C5.77502 15.225 5.92502 15.675 6.07502 16.05C6.22502 16.425 6.45002 16.8 6.82502 17.175C7.20002 17.55 7.50002 17.7 7.95002 17.925C8.32502 18.075 8.77502 18.15 9.45002 18.225C10.125 18.225 10.35 18.225 12 18.225C13.65 18.225 13.875 18.225 14.55 18.225C15.225 18.225 15.675 18.075 16.05 17.925C16.425 17.775 16.8 17.55 17.175 17.175C17.55 16.8 17.7 16.5 17.925 16.05C18.075 15.675 18.15 15.225 18.225 14.55C18.225 13.875 18.225 13.65 18.225 12C18.225 10.35 18.225 10.125 18.225 9.45002C18.225 8.77502 18.075 8.32502 17.925 7.95002C17.775 7.57502 17.55 7.20002 17.175 6.82502C16.8 6.45002 16.5 6.30002 16.05 6.07502C15.675 5.92502 15.225 5.85002 14.55 5.77502C13.875 5.77502 13.725 5.77502 12 5.77502Z" fill="white"/>
<path d="M12 8.77502C10.2 8.77502 8.77502 10.2 8.77502 12C8.77502 13.8 10.2 15.225 12 15.225C13.8 15.225 15.225 13.8 15.225 12C15.225 10.2 13.8 8.77502 12 8.77502ZM12 14.1C10.875 14.1 9.90002 13.2 9.90002 12C9.90002 10.875 10.8 9.90002 12 9.90002C13.125 9.90002 14.1 10.8 14.1 12C14.1 13.125 13.125 14.1 12 14.1Z" fill="white"/>
<path d="M15.3 9.45002C15.7142 9.45002 16.05 9.11424 16.05 8.70002C16.05 8.28581 15.7142 7.95002 15.3 7.95002C14.8858 7.95002 14.55 8.28581 14.55 8.70002C14.55 9.11424 14.8858 9.45002 15.3 9.45002Z" fill="white"/>
</svg>
